#!OML:ASF F:\twosubjects\two\Thursday\Session 1\justin.ASF
:FULLY-SPECIFIED
:DEGREES
225
root 8.61047 18.5852 -20.9338 -7.38909 -80.8556 9.79362
lowerback 4.1671 1.17642 -2.59805
upperback -0.409899 1.48047 1.7355
thorax -2.87213 0.790395 3.15007
lowerneck -23.0736 6.08579 -4.39452
upperneck 22.4586 8.82908 4.46295
head 10.5942 4.19827 3.67407
rclavicle -1.16041e-014 -1.66979e-014
rhumerus -42.3822 -34.7817 -41.388
rradius 41.7257
rwrist -34.3605
rhand -23.0069 1.05378
rfingers 7.12502
rthumb 3.43642 -28.8983
lclavicle -1.16041e-014 -1.66979e-014
lhumerus -32.1897 21.507 57.1562
lradius 36.9149
lwrist 13.0245
lhand -5.25718 42.5286
lfingers 7.12502
lthumb 20.5463 71.4613
rfemur -19.2645 -4.44874 18.212
rtibia 52.6647
rfoot -3.08743 -2.96225
rtoes -5.85499
lfemur -20.0039 5.07156 -20.6079
ltibia 47.0522
lfoot 3.4917 -15.0737
ltoes -15.0888
226
root 8.62253 18.4404 -20.9807 -5.70781 -81.2208 7.96827
lowerback 4.16331 1.16602 -2.4641
upperback -0.261126 1.47584 1.91139
thorax -2.71744 0.782142 3.25848
lowerneck -22.868 6.27741 -4.49961
upperneck 22.3964 9.0753 4.64024
head 10.5034 4.3287 3.77392
rclavicle 1.93318e-014 7.15625e-015
rhumerus -42.2903 -34.602 -44.4759
rradius 41.4373
rwrist -36.1989
rhand -22.9629 0.133993
rfingers 7.12502
rthumb 3.47895 -29.8174
lclavicle 1.93318e-014 7.15625e-015
lhumerus -32.7411 22.7026 59.1792
lradius 36.012
lwrist 13.0325
lhand -3.25917 42.8523
lfingers 7.12502
lthumb 22.4652 71.5657
rfemur -19.6928 -4.1332 18.9021
rtibia 53.5145
rfoot -2.72218 -4.40476
rtoes -2.26117
lfemur -20.0208 5.49645 -20.7791
ltibia 47.3615
lfoot 3.12482 -14.9432
ltoes -16.1221
227
root 8.63357 18.286 -21.0283 -4.54949 -81.4198 6.7476
lowerback 4.09803 1.08716 -2.45897
upperback -0.0783265 1.37325 2.07196
thorax -2.48847 0.724985 3.43149
lowerneck -22.347 6.31869 -4.85417
upperneck 21.7324 9.1984 4.74537
head 10.1354 4.39381 3.82434
rclavicle -7.45443e-015 -5.56597e-015
rhumerus -41.8219 -33.9711 -47.8631
rradius 41.0759
rwrist -38.3371
rhand -22.889 -0.945029
rfingers 7.12502
rthumb 3.55032 -30.8952
lclavicle -7.45443e-015 -5.56597e-015
lhumerus -33.2425 24.0544 61.216
lradius 35.4673
lwrist 13.1331
lhand -2.61264 43.2269
lfingers 7.12502
lthumb 23.0857 71.864
rfemur -20.1313 -3.9163 19.3956
rtibia 54.2834
rfoot -2.49307 -5.85641
rtoes -0.674308
lfemur -20.1558 5.75473 -21.062
ltibia 47.7341
lfoot 2.96773 -14.5546
ltoes -15.6753
228
root 8.64102 18.1151 -21.0737 -7.4679 -81.5214 9.6949
lowerback 3.94728 1.05448 -2.85669
upperback 0.0912412 1.31075 1.88969
thorax -2.2289 0.691163 3.47486
lowerneck -22.5509 6.3472 -3.65968
upperneck 21.0416 9.05619 3.88151
head 10.0439 4.33562 3.29905
rclavicle 2.47487e-014 1.27222e-014
rhumerus -41.6436 -34.2853 -50.9749
rradius 40.7815
rwrist -39.463
rhand -22.8166 -1.29045
rfingers 7.12502
rthumb 3.62017 -31.2395
lclavicle 2.47487e-014 1.27222e-014
lhumerus -33.4372 25.0722 63.1961
lradius 34.9315
lwrist 13.3625
lhand -2.3753 43.9379
lfingers 7.12502
lthumb 23.3134 72.5463
rfemur -20.5609 -3.70701 19.1373
rtibia 55.0644
rfoot -2.6945 -7.37691
rtoes -2.55484
lfemur -20.3458 5.68317 -21.9874
ltibia 48.2071
lfoot 3.00357 -14.0079
ltoes -15.0731
229
root 8.64999 17.9259 -21.1149 -8.98293 -81.63 11.1786
lowerback 3.84489 1.02998 -2.94251
upperback 0.263604 1.27343 1.72289
thorax -1.98881 0.665809 3.35574
lowerneck -22.5068 6.45074 -3.47177
upperneck 21.0781 9.1928 3.64977
head 10.0657 4.38216 3.20778
rclavicle 8.19987e-015 1.27222e-014
rhumerus -41.4204 -35.4627 -53.7297
rradius 40.1827
rwrist -39.738
rhand -22.4148 -1.78725
rfingers 7.12502
rthumb 4.00825 -31.7293
lclavicle 8.19987e-015 1.27222e-014
lhumerus -33.4474 26.0706 65.3069
lradius 34.1588
lwrist 13.6788
lhand -3.55418 44.1745
lfingers 7.12502
lthumb 22.182 72.9218
rfemur -20.8749 -3.39709 19.0516
rtibia 55.9658
rfoot -3.76361 -7.06659
rtoes -4.91408
lfemur -20.516 5.30573 -22.5997
ltibia 48.8942
lfoot 1.54387 -12.8137
ltoes -19.7748
230
root 8.6632 17.7218 -21.1583 -7.86823 -81.7579 10.0275
lowerback 3.82774 0.941673 -2.81526
upperback 0.405434 1.16169 1.82892
thorax -1.82387 0.603516 3.40145
lowerneck -23.0428 6.50668 -4.05457
upperneck 21.4869 9.32496 4.32045
head 10.233 4.46949 3.59224
rclavicle 1.15792e-014 -2.38542e-015
rhumerus -40.6359 -35.8858 -56.66
rradius 39.3891
rwrist -40.3637
rhand -21.8531 -3.11053
rfingers 7.12502
rthumb 4.55059 -33.0416
lclavicle 1.15792e-014 -2.38542e-015
lhumerus -33.5151 26.9817 67.6121
lradius 33.5725
lwrist 14.4697
lhand -4.78087 44.1733
lfingers 7.12502
lthumb 21.0039 73.056
rfemur -21.1944 -2.90411 19.3178
rtibia 57.0485
rfoot -6.05698 -6.57531
rtoes -10.5043
lfemur -20.6651 4.86381 -22.7636
ltibia 49.9165
lfoot -1.22395 -11.1891
ltoes -21.3512
231
root 8.67823 17.5144 -21.2048 -3.27228 -82.0337 5.41296
lowerback 3.82836 0.921918 -2.26404
upperback 0.492971 1.15919 2.10908
thorax -1.72891 0.594706 3.3809
lowerneck -23.8862 6.59322 -3.90765
upperneck 21.8705 9.42644 4.34432
head 10.5263 4.51682 3.65146
rclavicle -2.6985e-014 0
rhumerus -39.7923 -35.3585 -59.874
rradius 38.8467
rwrist -41.4772
rhand -23.4207 -4.27317
rfingers 7.12502
rthumb 3.03678 -34.2313
lclavicle -2.6985e-014 0
lhumerus -33.4337 27.815 69.6704
lradius 32.8589
lwrist 14.6648
lhand -4.16755 44.0907
lfingers 7.12502
lthumb 21.5931 72.9068
rfemur -21.5255 -2.32802 20.1266
rtibia 58.3237
rfoot -9.31183 -6.10851
rtoes -15.7882
lfemur -20.8886 4.6235 -22.2971
ltibia 51.2974
lfoot -5.38599 -8.94793
ltoes -25.9319
